<svg width="600" height="120" viewBox="0 0 600 120" xmlns="http://www.w3.org/2000/svg">
  <defs>
    <linearGradient id="g4a" x1="0%" y1="0%" x2="100%" y2="0%">
      <stop offset="0%" stop-color="#1e1b4b"/>
      <stop offset="50%" stop-color="#312e81"/>
      <stop offset="100%" stop-color="#0c4a6e"/>
    </linearGradient>
    <radialGradient id="g4b" cx="25%" cy="50%" r="40%">
      <stop offset="0%" stop-color="#818cf8" stop-opacity="0.55"/>
      <stop offset="100%" stop-color="#1e1b4b" stop-opacity="0"/>
    </radialGradient>
    <radialGradient id="g4c" cx="80%" cy="50%" r="40%">
      <stop offset="0%" stop-color="#22d3ee" stop-opacity="0.38"/>
      <stop offset="100%" stop-color="#0c4a6e" stop-opacity="0"/>
    </radialGradient>
  </defs>

  <!-- Base gradient -->
  <rect width="600" height="120" rx="60" fill="url(#g4a)"/>
  <rect width="600" height="120" rx="60" fill="url(#g4b)"/>
  <rect width="600" height="120" rx="60" fill="url(#g4c)"/>

  <!-- Outer connections left -->
  <line x1="40" y1="35" x2="130" y2="60" stroke="#a5b4fc" stroke-width="0.8" stroke-opacity="0.45"/>
  <line x1="40" y1="88" x2="130" y2="60" stroke="#a5b4fc" stroke-width="0.8" stroke-opacity="0.38"/>
  <line x1="70" y1="18" x2="200" y2="42" stroke="#a5b4fc" stroke-width="0.6" stroke-opacity="0.3"/>

  <!-- Central brain cluster -->
  <line x1="130" y1="60" x2="230" y2="40" stroke="#a5b4fc" stroke-width="1" stroke-opacity="0.6"/>
  <line x1="230" y1="40" x2="300" y2="55" stroke="#c7d2fe" stroke-width="0.8" stroke-opacity="0.55"/>
  <line x1="300" y1="55" x2="370" y2="40" stroke="#67e8f9" stroke-width="0.8" stroke-opacity="0.55"/>
  <line x1="370" y1="40" x2="470" y2="60" stroke="#67e8f9" stroke-width="1" stroke-opacity="0.6"/>

  <line x1="130" y1="60" x2="230" y2="82" stroke="#a5b4fc" stroke-width="0.8" stroke-opacity="0.45"/>
  <line x1="230" y1="82" x2="300" y2="68" stroke="#c7d2fe" stroke-width="0.7" stroke-opacity="0.45"/>
  <line x1="300" y1="68" x2="370" y2="82" stroke="#67e8f9" stroke-width="0.7" stroke-opacity="0.45"/>
  <line x1="370" y1="82" x2="470" y2="60" stroke="#67e8f9" stroke-width="0.8" stroke-opacity="0.45"/>

  <!-- Vertical cross connections -->
  <line x1="230" y1="40" x2="230" y2="82" stroke="#c7d2fe" stroke-width="0.6" stroke-opacity="0.4"/>
  <line x1="300" y1="55" x2="300" y2="68" stroke="#c7d2fe" stroke-width="0.6" stroke-opacity="0.5"/>
  <line x1="370" y1="40" x2="370" y2="82" stroke="#67e8f9" stroke-width="0.6" stroke-opacity="0.4"/>

  <!-- Extra inner diagonals -->
  <line x1="230" y1="40" x2="370" y2="82" stroke="#c7d2fe" stroke-width="0.4" stroke-opacity="0.2"/>
  <line x1="230" y1="82" x2="370" y2="40" stroke="#c7d2fe" stroke-width="0.4" stroke-opacity="0.2"/>

  <!-- Outer connections right -->
  <line x1="470" y1="60" x2="555" y2="35" stroke="#67e8f9" stroke-width="0.8" stroke-opacity="0.38"/>
  <line x1="470" y1="60" x2="558" y2="88" stroke="#67e8f9" stroke-width="0.8" stroke-opacity="0.35"/>
  <line x1="470" y1="60" x2="530" y2="18" stroke="#67e8f9" stroke-width="0.6" stroke-opacity="0.28"/>

  <!-- Nodes -->
  <circle cx="40" cy="35" r="3" fill="#818cf8" fill-opacity="0.55"/>
  <circle cx="40" cy="88" r="3" fill="#818cf8" fill-opacity="0.5"/>
  <circle cx="70" cy="18" r="2" fill="#818cf8" fill-opacity="0.4"/>
  <circle cx="130" cy="60" r="5" fill="#818cf8" fill-opacity="0.9"/>
  <circle cx="200" cy="42" r="2.5" fill="#a5b4fc" fill-opacity="0.55"/>
  <circle cx="230" cy="40" r="4" fill="#a5b4fc" fill-opacity="0.85"/>
  <circle cx="230" cy="82" r="4" fill="#a5b4fc" fill-opacity="0.85"/>
  <circle cx="300" cy="55" r="4.5" fill="#c7d2fe" fill-opacity="0.9"/>
  <circle cx="300" cy="68" r="3.5" fill="#c7d2fe" fill-opacity="0.8"/>
  <circle cx="370" cy="40" r="4" fill="#67e8f9" fill-opacity="0.85"/>
  <circle cx="370" cy="82" r="4" fill="#67e8f9" fill-opacity="0.85"/>
  <circle cx="470" cy="60" r="5" fill="#22d3ee" fill-opacity="0.9"/>
  <circle cx="555" cy="35" r="3" fill="#22d3ee" fill-opacity="0.55"/>
  <circle cx="558" cy="88" r="3" fill="#22d3ee" fill-opacity="0.5"/>
  <circle cx="530" cy="18" r="2" fill="#22d3ee" fill-opacity="0.4"/>
</svg>
